<svg xmlns="http://www.w3.org/2000/svg" viewBox="0 0 1200 210" width="1200" height="210" role="img" aria-label="BaronsMarket multimodal retail pipeline">
  <defs><linearGradient id="card"><stop stop-color="#1A0E28"/><stop offset="1" stop-color="#12091E"/></linearGradient><linearGradient id="acc"><stop stop-color="#A855F7"/><stop offset="1" stop-color="#F43F5E"/></linearGradient></defs><rect width="1200" height="210" rx="14" fill="#0B0714"/><rect width="1200" height="3" fill="url(#acc)"/>
  <g font-family="Segoe UI,Arial,sans-serif"><text x="28" y="32" fill="#9D8BAC" font-size="11" font-weight="700" letter-spacing="2">PERCEPTION TO OPERATION</text>
    <g fill="url(#card)" stroke="#3B214F"><rect x="28" y="55" width="170" height="55" rx="10"/><rect x="28" y="130" width="170" height="55" rx="10"/><rect x="245" y="74" width="170" height="92" rx="10" stroke="#A855F7"/><rect x="475" y="42" width="190" height="62" rx="10"/><rect x="475" y="116" width="190" height="62" rx="10"/><rect x="725" y="42" width="190" height="62" rx="10"/><rect x="725" y="116" width="190" height="62" rx="10"/><rect x="975" y="74" width="197" height="92" rx="10" stroke="#FB7185"/></g>
    <g text-anchor="middle"><text x="113" y="78" fill="#EEE8F5" font-size="13" font-weight="700">FLUTTER APP</text><text x="113" y="96" fill="#9D8BAC" font-size="11">scan · cart · checkout</text><text x="113" y="153" fill="#EEE8F5" font-size="13" font-weight="700">EMPLOYEE WEB</text><text x="113" y="171" fill="#9D8BAC" font-size="11">monitor · decide</text><text x="330" y="111" fill="#C084FC" font-size="14" font-weight="700">FASTAPI</text><text x="330" y="132" fill="#9D8BAC" font-size="11">async orchestration</text><text x="570" y="67" fill="#EEE8F5" font-size="13" font-weight="700">VISION SERVICES</text><text x="570" y="87" fill="#9D8BAC" font-size="11">YOLO · CLIP · OCR</text><text x="570" y="141" fill="#EEE8F5" font-size="13" font-weight="700">RAG ASSISTANT</text><text x="570" y="161" fill="#9D8BAC" font-size="11">catalog-bound agents</text><text x="820" y="67" fill="#EEE8F5" font-size="13" font-weight="700">FAISS + QDRANT</text><text x="820" y="87" fill="#9D8BAC" font-size="11">visual + semantic search</text><text x="820" y="141" fill="#EEE8F5" font-size="13" font-weight="700">SUPABASE</text><text x="820" y="161" fill="#9D8BAC" font-size="11">events + operations</text><text x="1073" y="111" fill="#FB7185" font-size="14" font-weight="700">ACTIONABLE UI</text><text x="1073" y="132" fill="#9D8BAC" font-size="11">verified operational result</text></g>
    <g stroke="#6B4C7A" stroke-width="1.8" fill="none" stroke-dasharray="7 5"><path d="M198 82h47M198 157h47M415 105l60-32M415 136l60 11M665 73h60M665 147h60M915 73l60 32M915 147l60-11"/><animate attributeName="stroke-dashoffset" values="0;-24" dur="1.8s" repeatCount="indefinite"/></g>
  </g>
</svg>

